<?xml version="1.0" encoding="utf-8"?>
<!-- Generator: Adobe Illustrator 17.1.0, SVG Export Plug-In . SVG Version: 6.00 Build 0)  -->
<!DOCTYPE svg PUBLIC "-//W3C//DTD SVG 1.1//EN" "http://www.w3.org/Graphics/SVG/1.1/DTD/svg11.dtd">
<svg version="1.1"
	 id="svg37252" xmlns:svg="http://www.w3.org/2000/svg" xmlns:cc="http://creativecommons.org/ns#" xmlns:rdf="http://www.w3.org/1999/02/22-rdf-syntax-ns#" xmlns:dc="http://purl.org/dc/elements/1.1/"
	 xmlns="http://www.w3.org/2000/svg" xmlns:xlink="http://www.w3.org/1999/xlink" x="0px" y="0px" viewBox="17.1 23.2 414.8 414.8"
	 enable-background="new 17.1 23.2 414.8 414.8" xml:space="preserve">
<filter  color-interpolation-filters="sRGB" id="filter36475">
	<feGaussianBlur  id="feGaussianBlur36477" stdDeviation="1.000001"></feGaussianBlur>
</filter>
<g id="layer1" transform="translate(-47.191985,-74.56026)">
	<g id="g36481" transform="matrix(2.0174113,0,0,2.0174113,-5376.5075,-1412.3715)">
		<path id="path30142" fill="#800080" d="M2901.4,851.7c0,56.2-45.6,101.8-101.8,101.8c-56.2,0-101.8-45.6-101.8-101.8
			c0-56.2,45.6-101.8,101.8-101.8S2901.4,795.4,2901.4,851.7z"/>
		
			<radialGradient id="path30144_1_" cx="4055.1084" cy="1177.2054" r="101.8088" gradientTransform="matrix(2.2735 -0.4904 -0.4253 -1.9723 -5888.5649 5110.9067)" gradientUnits="userSpaceOnUse">
			<stop  offset="0" style="stop-color:#FF00FF"/>
			<stop  offset="1" style="stop-color:#FF00FF;stop-opacity:0"/>
		</radialGradient>
		<path id="path30144" fill="url(#path30144_1_)" d="M2901.4,851.7c0,56.2-45.6,101.8-101.8,101.8c-56.2,0-101.8-45.6-101.8-101.8
			c0-56.2,45.6-101.8,101.8-101.8S2901.4,795.4,2901.4,851.7z"/>
		<g id="g36407" transform="matrix(1.0139835,0,0,1.0167957,2799.7567,851.30601)" filter="url(#filter36475)">
			<g id="g36409_1_">
				<path id="path36411_1_" fill="none" stroke="#2B0011" d="M-4,99.9C-7.2,99.8-7.9,55-5.7-0.2S0.9-100.1,4-99.9c0,0,0,0,0,0"/>
				<path id="path36413_1_" fill="none" stroke="#2B0011" d="M-19.4,98.1C-33.8,95.3-36.9,49-26.2-5.2S4.9-101,19.4-98.1
					c0,0,0,0,0,0"/>
				<path id="path36415_1_" fill="none" stroke="#2B0011" d="M-36.1,93.3C-59.7,84.1-62.6,35-42.7-16.5s55.2-85.9,78.8-76.7
					c0,0,0,0,0,0"/>
				<path id="path36417_1_" fill="none" stroke="#2B0011" d="M-55.1,83.5C-83.6,64.7-82,12.1-51.6-34.1s78.2-68.2,106.7-49.4
					c0,0,0,0,0,0"/>
				<path id="path36419_1_" fill="none" stroke="#2B0011" d="M-76.2,64.8c-26.3-31-13.6-85.1,28.5-120.9s97.5-39.7,123.9-8.7
					c0,0,0,0,0,0"/>
				<path id="path36421_1_" fill="none" stroke="#2B0011" d="M-94.7,32.1C-109-10-78.1-58.4-25.8-76.2s106.3,2,120.5,44.1
					c0,0,0,0,0,0"/>
				<path id="path36423_1_" fill="none" stroke="#2B0011" d="M-99.3-12.1c5.5-44.8,54.3-75.7,109.2-69c54.8,6.7,94.8,48.4,89.4,93.2
					"/>
				<path id="path36425_1_" fill="none" stroke="#2B0011" d="M-85.7-51.5c22-36.7,78.3-43.4,125.6-14.9s67.9,81.2,45.9,117.9"/>
				<path id="path36427_1_" fill="none" stroke="#2B0011" d="M-64.8-76.2C-36.2-100.5,16-86.1,51.7-44s41.6,95.9,13,120.2"/>
				<path id="path36429_1_" fill="none" stroke="#2B0011" d="M-44.6-89.5c26.6-13.2,68.1,16.1,92.7,65.5S71.2,76.3,44.6,89.5"/>
				<path id="path36431_1_" fill="none" stroke="#2B0011" d="M-26.9-96.3c19.1-5.3,46.6,33.4,61.5,86.6S46,91,26.9,96.3"/>
				<path id="path36433_1_" fill="none" stroke="#2B0011" d="M-11.1-99.4c8.6-1,20.5,42.8,26.6,97.7s4.1,100.2-4.5,101.1"/>
			</g>
			<g id="g36435_1_">
				<path id="path36437_1_" fill="none" stroke="#2B0011" d="M15.7,98.8c-10.3,1.6-21.1,1.6-31.4,0"/>
				<path id="path36439_1_" fill="none" stroke="#2B0011" d="M50.5,86.3c-27.3,16-72.1,16.2-100,0.6c-0.3-0.2-0.7-0.4-1-0.6"/>
				<path id="path36441_1_" fill="none" stroke="#2B0011" d="M69.7,71.8C46.9,93.8-2.7,101.1-41.2,88.1c-11.7-4-21.6-9.6-28.5-16.3"
					/>
				<path id="path36443_1_" fill="none" stroke="#2B0011" d="M83.2,55.4C65.7,81.8,14.2,95-31.8,84.9C-55.5,79.8-74.2,69-83.2,55.4"
					/>
				<path id="path36445_1_" fill="none" stroke="#2B0011" d="M92.6,37.7c-12,29.3-63.1,47.6-114.2,40.7c-35.2-4.7-62.7-20.5-71-40.7
					"/>
				<path id="path36447_1_" fill="none" stroke="#2B0011" d="M98.2,19.1c-6,31.1-54.9,53.5-109.1,50c-45.9-2.9-82.1-23.7-87.2-50"/>
				<path id="path36449_1_" fill="none" stroke="#2B0011" d="M100,0c0,31.7-44.8,57.4-100,57.4S-100,31.7-100,0c0,0,0,0,0,0"/>
				<path id="path36451_1_" fill="none" stroke="#2B0011" d="M98.2-19.1c6,31.1-33,59.1-87.2,62.6S-92.1,24.6-98.2-6.5
					c-0.8-4.2-0.8-8.4,0-12.6"/>
				<path id="path36453_1_" fill="none" stroke="#2B0011" d="M92.6-37.7c12,29.3-19.8,58.7-71,65.5S-80.7,16.4-92.6-12.9
					c-3.3-8.2-3.3-16.7,0-24.8"/>
				<path id="path36455_1_" fill="none" stroke="#2B0011" d="M83.2-55.4c17.6,26.4-5.5,55.9-51.4,66S-65.7,7.4-83.2-19
					c-7.8-11.7-7.8-24.7,0-36.5"/>
				<path id="path36457_1_" fill="none" stroke="#2B0011" d="M69.7-71.8c22.7,22.1,10,50.5-28.5,63.6S-46.9-2.5-69.7-24.5
					c-15-14.6-15-32.7,0-47.2"/>
				<path id="path36459_1_" fill="none" stroke="#2B0011" d="M50.5-86.3c27.3,16,26.9,41.7-1,57.4s-72.7,15.4-100-0.6
					c-27-15.8-27-41,0-56.8"/>
				<path id="path36461_1_" fill="none" stroke="#2B0011" d="M15.7-98.8c31.3,5,49.6,23.5,41,41.5s-41,28.5-72.3,23.5
					s-49.6-23.5-41-41.5c5.5-11.4,21.1-20.3,41-23.5"/>
				<path id="path36463_1_" fill="none" stroke="#2B0011" d="M45.4-73c0,14.4-20.3,26-45.4,26s-45.4-11.7-45.4-26S-25.1-99,0-99
					S45.4-87.4,45.4-73z"/>
				<path id="path36465_1_" fill="none" stroke="#2B0011" d="M30.9-77.9c0,9.8-13.8,17.7-30.9,17.7s-30.9-7.9-30.9-17.7
					S-17.1-95.6,0-95.6S30.9-87.7,30.9-77.9z"/>
				<path id="path36467_1_" fill="none" stroke="#2B0011" d="M15.6-80.9c0,5-7,9-15.6,9s-15.6-4-15.6-9s7-9,15.6-9
					S15.6-85.9,15.6-80.9z"/>
			</g>
			<path id="path36469_1_" fill="none" stroke="#2B0011" d="M100,0c0,55.2-44.8,100-100,100S-100,55.2-100,0S-55.2-100,0-100
				S100-55.2,100,0z"/>
		</g>
		
			<linearGradient id="path36403_1_" gradientUnits="userSpaceOnUse" x1="4038.0059" y1="1250.4761" x2="4071.4155" y2="1053.1995" gradientTransform="matrix(2.9074 0 0 -2.9074 -8975.0684 4270.0996)">
			<stop  offset="0" style="stop-color:#FFFFFF"/>
			<stop  offset="1" style="stop-color:#FFFFFF;stop-opacity:0"/>
		</linearGradient>
		<path id="path36403" fill="url(#path36403_1_)" d="M2886.5,837c0,45.6-39,82.5-87.1,82.5s-87.1-37-87.1-82.5s39-82.5,87.1-82.5
			S2886.5,791.4,2886.5,837z"/>
		<g id="g30356" transform="matrix(1.0139835,0,0,1.0167957,2800.3191,851.86843)">
			<g id="g30358">
				<path id="path30360" fill="none" stroke="#FF0066" d="M-4,99.9C-7.2,99.8-7.9,55-5.7-0.2S0.9-100.1,4-99.9c0,0,0,0,0,0"/>
				<path id="path30362" fill="none" stroke="#FF0066" d="M-19.4,98.1C-33.8,95.3-36.9,49-26.2-5.2S4.9-101,19.4-98.1c0,0,0,0,0,0"
					/>
				<path id="path30364" fill="none" stroke="#FF0066" d="M-36.1,93.3C-59.7,84.1-62.6,35-42.7-16.5s55.2-85.9,78.8-76.7
					c0,0,0,0,0,0"/>
				<path id="path30366" fill="none" stroke="#FF0066" d="M-55.1,83.5C-83.6,64.7-82,12.1-51.6-34.1s78.2-68.2,106.7-49.4
					c0,0,0,0,0,0"/>
				<path id="path30368" fill="none" stroke="#FF0066" d="M-76.2,64.8c-26.3-31-13.6-85.1,28.5-120.9s97.5-39.7,123.9-8.7
					c0,0,0,0,0,0"/>
				<path id="path30370" fill="none" stroke="#FF0066" d="M-94.7,32.1C-109-10-78.1-58.4-25.8-76.2s106.3,2,120.5,44.1c0,0,0,0,0,0"
					/>
				<path id="path30372" fill="none" stroke="#FF0066" d="M-99.3-12.1c5.5-44.8,54.3-75.7,109.2-69c54.8,6.7,94.8,48.4,89.4,93.2"/>
				<path id="path30374" fill="none" stroke="#FF0066" d="M-85.7-51.5c22-36.7,78.3-43.4,125.6-14.9s67.9,81.2,45.9,117.9"/>
				<path id="path30376" fill="none" stroke="#FF0066" d="M-64.8-76.2C-36.2-100.5,16-86.1,51.7-44s41.6,95.9,13,120.2"/>
				<path id="path30378" fill="none" stroke="#FF0066" d="M-44.6-89.5c26.6-13.2,68.1,16.1,92.7,65.5S71.2,76.3,44.6,89.5"/>
				<path id="path30380" fill="none" stroke="#FF0066" d="M-26.9-96.3c19.1-5.3,46.6,33.4,61.5,86.6S46,91,26.9,96.3"/>
				<path id="path30382" fill="none" stroke="#FF0066" d="M-11.1-99.4c8.6-1,20.5,42.8,26.6,97.7s4.1,100.2-4.5,101.1"/>
			</g>
			<g id="g30384">
				<path id="path30386" fill="none" stroke="#FF0066" d="M15.7,98.8c-10.3,1.6-21.1,1.6-31.4,0"/>
				<path id="path30388" fill="none" stroke="#FF0066" d="M50.5,86.3c-27.3,16-72.1,16.2-100,0.6c-0.3-0.2-0.7-0.4-1-0.6"/>
				<path id="path30390" fill="none" stroke="#FF0066" d="M69.7,71.8C46.9,93.8-2.7,101.1-41.2,88.1c-11.7-4-21.6-9.6-28.5-16.3"/>
				<path id="path30392" fill="none" stroke="#FF0066" d="M83.2,55.4C65.7,81.8,14.2,95-31.8,84.9C-55.5,79.8-74.2,69-83.2,55.4"/>
				<path id="path30394" fill="none" stroke="#FF0066" d="M92.6,37.7c-12,29.3-63.1,47.6-114.2,40.7c-35.2-4.7-62.7-20.5-71-40.7"/>
				<path id="path30396" fill="none" stroke="#FF0066" d="M98.2,19.1c-6,31.1-54.9,53.5-109.1,50c-45.9-2.9-82.1-23.7-87.2-50"/>
				<path id="path30398" fill="none" stroke="#FF0066" d="M100,0c0,31.7-44.8,57.4-100,57.4S-100,31.7-100,0c0,0,0,0,0,0"/>
				<path id="path30400" fill="none" stroke="#FF0066" d="M98.2-19.1c6,31.1-33,59.1-87.2,62.6C-43.3,47-92.1,24.6-98.2-6.5
					c-0.8-4.2-0.8-8.4,0-12.6"/>
				<path id="path30402" fill="none" stroke="#FF0066" d="M92.6-37.7c12,29.3-19.8,58.7-71,65.5S-80.7,16.4-92.6-12.9
					c-3.3-8.2-3.3-16.7,0-24.8"/>
				<path id="path30404" fill="none" stroke="#FF0066" d="M83.2-55.4c17.6,26.4-5.5,55.9-51.4,66S-65.7,7.4-83.2-19
					c-7.8-11.7-7.8-24.7,0-36.5"/>
				<path id="path30406" fill="none" stroke="#FF0066" d="M69.7-71.8c22.7,22.1,10,50.5-28.5,63.6S-46.9-2.5-69.7-24.5
					c-15-14.6-15-32.7,0-47.2"/>
				<path id="path30408" fill="none" stroke="#FF0066" d="M50.5-86.3c27.3,16,26.9,41.7-1,57.4s-72.7,15.4-100-0.6
					c-27-15.8-27-41,0-56.8"/>
				<path id="path30410" fill="none" stroke="#FF0066" d="M15.7-98.8c31.3,5,49.6,23.5,41,41.5s-41,28.5-72.3,23.5
					s-49.6-23.5-41-41.5c5.5-11.4,21.1-20.3,41-23.5"/>
				<path id="path30412" fill="none" stroke="#FF0066" d="M45.4-73c0,14.4-20.3,26-45.4,26s-45.4-11.7-45.4-26S-25.1-99,0-99
					S45.4-87.4,45.4-73z"/>
				<path id="path30414" fill="none" stroke="#FF0066" d="M30.9-77.9c0,9.8-13.8,17.7-30.9,17.7s-30.9-7.9-30.9-17.7
					S-17.1-95.6,0-95.6S30.9-87.7,30.9-77.9z"/>
				<path id="path30416" fill="none" stroke="#FF0066" d="M15.6-80.9c0,5-7,9-15.6,9s-15.6-4-15.6-9c0-5,7-9,15.6-9
					S15.6-85.9,15.6-80.9z"/>
			</g>
			<path id="path30418" fill="none" stroke="#FF0066" d="M100,0c0,55.2-44.8,100-100,100S-100,55.2-100,0S-55.2-100,0-100
				S100-55.2,100,0z"/>
		</g>
	</g>
</g>
</svg>
